<?xml version="1.0" encoding="UTF-8"?>
<svg xmlns="http://www.w3.org/2000/svg" xmlns:xlink="http://www.w3.org/1999/xlink" viewBox="0 0 128 128" width="128px" height="128px">
<g id="surface3307396">
<path style=" stroke:none;fill-rule:nonzero;fill:rgb(100%,100%,100%);fill-opacity:1;" d="M 16.472656 4 C 15.847656 3.972656 15.246094 4.238281 14.847656 4.71875 C 14.449219 5.199219 14.296875 5.839844 14.4375 6.449219 L 14.585938 7.101562 C 18.347656 23.496094 18.386719 40.523438 14.703125 56.9375 L 12.847656 65.152344 C 8.578125 84.121094 9.132812 103.855469 14.460938 122.554688 C 14.707031 123.410156 15.492188 124 16.382812 124 C 16.570312 124 16.753906 123.976562 16.933594 123.925781 C 17.445312 123.78125 17.875 123.4375 18.132812 122.972656 C 18.390625 122.511719 18.453125 121.964844 18.308594 121.453125 C 13.164062 103.402344 12.628906 84.347656 16.75 66.035156 L 18.605469 57.816406 C 22.417969 40.816406 22.378906 23.179688 18.484375 6.199219 L 18.335938 5.550781 C 18.132812 4.671875 17.371094 4.039062 16.472656 4 Z M 87.941406 4 C 86.859375 4.03125 86 4.917969 86 6 C 85.984375 13.0625 81.847656 19.464844 75.414062 22.382812 C 74.585938 22.753906 74.109375 23.640625 74.261719 24.535156 C 74.410156 25.433594 75.144531 26.117188 76.050781 26.199219 C 97.746094 28.347656 114.191406 46.734375 113.910156 68.53125 C 113.632812 90.328125 96.726562 108.289062 74.984375 109.882812 C 74.449219 109.921875 73.953125 110.171875 73.605469 110.578125 C 73.257812 110.984375 73.085938 111.511719 73.132812 112.046875 L 74 122.171875 C 74.089844 123.207031 74.960938 124.003906 76 124 C 76.058594 124.003906 76.117188 124.003906 76.175781 124 C 76.707031 123.957031 77.195312 123.699219 77.539062 123.292969 C 77.882812 122.886719 78.046875 122.359375 78 121.828125 L 77.300781 113.6875 C 100.464844 110.9375 117.933594 91.328125 118 68 C 118.089844 46.363281 103.019531 27.617188 81.867188 23.058594 C 87.003906 18.882812 89.988281 12.621094 90 6 C 90 5.460938 89.78125 4.941406 89.394531 4.566406 C 89.003906 4.1875 88.480469 3.984375 87.941406 4 Z M 70.980469 30.015625 C 64.65625 30.191406 58.472656 31.949219 53 35.125 C 52.089844 35.699219 51.792969 36.886719 52.332031 37.820312 C 52.871094 38.75 54.050781 39.089844 55 38.585938 C 69.382812 30.328125 87.625 33.703125 98.101562 46.558594 C 108.578125 59.414062 108.199219 77.964844 97.210938 90.382812 C 86.21875 102.800781 67.851562 105.433594 53.820312 96.597656 C 39.785156 87.761719 34.21875 70.0625 40.664062 54.785156 C 41.066406 53.773438 40.585938 52.628906 39.585938 52.203125 C 38.582031 51.777344 37.425781 52.234375 36.980469 53.226562 C 31.003906 67.414062 34.175781 83.804688 45.019531 94.734375 C 55.859375 105.667969 72.222656 108.976562 86.457031 103.121094 C 100.695312 97.261719 109.992188 83.394531 110 68 C 110.011719 57.742188 105.871094 47.914062 98.519531 40.757812 C 91.167969 33.605469 81.234375 29.726562 70.980469 30.015625 Z M 77.507812 42 C 77.386719 42 77.269531 42.003906 77.148438 42.011719 C 74.101562 42.273438 71.820312 44.917969 72 47.96875 C 72.496094 52.769531 75.925781 56.753906 80.601562 57.957031 C 80.734375 57.984375 80.867188 58 81 58 C 81.132812 58 81.265625 57.984375 81.398438 57.957031 C 86.074219 56.753906 89.503906 52.769531 90 47.96875 C 90.179688 44.921875 87.90625 42.28125 84.863281 42.011719 C 83.464844 41.921875 82.085938 42.371094 81.007812 43.269531 C 80.027344 42.445312 78.789062 41.996094 77.507812 42 Z M 84.542969 45.996094 C 84.5625 45.996094 84.582031 46 84.601562 46 C 85.464844 46.128906 86.078125 46.910156 86 47.78125 C 85.617188 50.605469 83.6875 52.976562 81 53.925781 C 78.3125 52.976562 76.382812 50.605469 76 47.785156 C 75.917969 46.914062 76.53125 46.128906 77.398438 46 L 77.496094 46 C 77.871094 45.996094 78.234375 46.140625 78.507812 46.398438 C 78.824219 46.699219 79.003906 47.113281 79 47.550781 C 79 48.65625 79.894531 49.550781 81 49.550781 C 82.105469 49.550781 83 48.65625 83 47.550781 C 82.996094 47.113281 83.175781 46.699219 83.492188 46.398438 C 83.773438 46.128906 84.152344 45.984375 84.542969 45.996094 Z M 53.4375 56.023438 C 53.132812 56.035156 52.828125 56.058594 52.527344 56.09375 C 46.28125 57.023438 41.738281 62.515625 42 68.828125 C 42.363281 85.109375 55.714844 98.09375 72 98 C 86.773438 98.066406 99.371094 87.3125 101.625 72.710938 C 101.894531 71.027344 101.410156 69.3125 100.300781 68.019531 C 99.210938 66.738281 97.609375 66 95.925781 66 L 95.457031 66 C 92.597656 66.03125 90.179688 68.128906 89.75 70.957031 L 89.695312 71.261719 C 89.636719 71.648438 89.324219 71.949219 88.933594 71.988281 C 88.492188 72.070312 88.046875 71.851562 87.839844 71.453125 C 83.457031 63.308594 73.609375 59.824219 65.078125 63.398438 C 64.476562 61.949219 63.59375 60.632812 62.480469 59.523438 C 62.398438 59.457031 62.308594 59.394531 62.214844 59.34375 C 59.859375 57.097656 56.691406 55.898438 53.4375 56.023438 Z M 53.820312 60 C 53.867188 60 53.914062 60 53.960938 60 C 56.25 60.003906 58.429688 60.988281 59.949219 62.703125 C 60.042969 62.808594 60.125 62.917969 60.214844 63.027344 C 60.441406 63.300781 60.644531 63.589844 60.832031 63.894531 C 60.871094 63.960938 60.90625 64.035156 60.945312 64.09375 C 61.386719 64.875 61.691406 65.722656 61.847656 66.601562 C 61.851562 66.617188 61.855469 66.632812 61.863281 66.648438 C 61.945312 67.09375 61.992188 67.546875 62 68 C 62.003906 70.121094 61.160156 72.160156 59.65625 73.65625 C 59.140625 74.160156 58.933594 74.902344 59.117188 75.597656 C 59.296875 76.296875 59.84375 76.84375 60.542969 77.023438 C 61.238281 77.207031 61.980469 77 62.484375 76.484375 C 64.742188 74.238281 66.007812 71.183594 66 68 C 66 67.800781 65.980469 67.597656 65.972656 67.398438 C 72.695312 64.113281 80.808594 66.746094 84.324219 73.347656 C 85.332031 75.246094 87.441406 76.285156 89.558594 75.933594 C 91.628906 75.628906 93.273438 74.03125 93.636719 71.96875 L 93.699219 71.628906 L 93.699219 71.613281 C 93.804688 70.714844 94.554688 70.03125 95.457031 70 L 95.925781 70 C 96.441406 69.996094 96.929688 70.222656 97.261719 70.617188 C 97.609375 71.023438 97.757812 71.558594 97.675781 72.085938 C 95.585938 85.367188 83.71875 94.867188 70.300781 93.992188 C 56.882812 93.117188 46.347656 82.160156 46 68.71875 C 45.777344 64.46875 48.796875 60.734375 53 60.058594 C 53.273438 60.023438 53.546875 60.003906 53.820312 60 Z M 53.992188 64 C 52.886719 64 51.992188 64.894531 51.992188 66 C 51.992188 67.105469 52.886719 68 53.992188 68 C 55.097656 68 55.992188 67.105469 55.992188 66 C 55.992188 64.894531 55.097656 64 53.992188 64 Z M 86.601562 79.773438 C 86.03125 79.757812 85.480469 79.984375 85.089844 80.398438 C 81.691406 84 76.953125 86.03125 72 86 C 70.894531 86 70 86.894531 70 88 C 70 89.105469 70.894531 90 72 90 C 78.050781 90.039062 83.847656 87.558594 88 83.15625 C 88.542969 82.582031 88.699219 81.742188 88.398438 81.011719 C 88.09375 80.28125 87.390625 79.796875 86.601562 79.773438 Z M 86.601562 79.773438 "/>
</g>
</svg>
