<?xml version="1.0" encoding="UTF-8"?>
<svg xmlns="http://www.w3.org/2000/svg" xmlns:xlink="http://www.w3.org/1999/xlink" viewBox="0 0 16 16" width="16px" height="16px">
<g id="surface124135">
<path style=" stroke:none;fill-rule:nonzero;fill:rgb(100%,100%,100%);fill-opacity:1;" d="M 2.058594 0.5 C 1.980469 0.496094 1.90625 0.53125 1.855469 0.589844 C 1.804688 0.648438 1.785156 0.730469 1.804688 0.804688 L 1.824219 0.886719 C 2.292969 2.9375 2.296875 5.066406 1.835938 7.117188 L 1.605469 8.144531 C 1.070312 10.515625 1.140625 12.980469 1.808594 15.320312 C 1.839844 15.425781 1.9375 15.5 2.046875 15.5 C 2.070312 15.5 2.09375 15.496094 2.117188 15.492188 C 2.179688 15.472656 2.234375 15.429688 2.265625 15.371094 C 2.300781 15.3125 2.308594 15.246094 2.289062 15.183594 C 1.644531 12.925781 1.578125 10.542969 2.09375 8.253906 L 2.324219 7.226562 C 2.800781 5.101562 2.796875 2.898438 2.308594 0.773438 L 2.292969 0.695312 C 2.265625 0.585938 2.171875 0.503906 2.058594 0.5 Z M 10.992188 0.5 C 10.859375 0.503906 10.75 0.613281 10.75 0.75 C 10.746094 1.632812 10.230469 2.433594 9.425781 2.796875 C 9.324219 2.84375 9.265625 2.953125 9.28125 3.066406 C 9.300781 3.179688 9.394531 3.265625 9.507812 3.273438 C 12.21875 3.542969 14.273438 5.839844 14.238281 8.566406 C 14.203125 11.289062 12.089844 13.535156 9.375 13.734375 C 9.304688 13.738281 9.246094 13.769531 9.199219 13.820312 C 9.15625 13.871094 9.136719 13.9375 9.140625 14.007812 L 9.25 15.273438 C 9.261719 15.402344 9.371094 15.5 9.5 15.5 C 9.507812 15.5 9.515625 15.5 9.523438 15.5 C 9.589844 15.496094 9.648438 15.460938 9.691406 15.410156 C 9.734375 15.359375 9.757812 15.292969 9.75 15.226562 L 9.664062 14.210938 C 12.558594 13.867188 14.742188 11.414062 14.75 8.5 C 14.761719 5.796875 12.878906 3.453125 10.234375 2.882812 C 10.875 2.359375 11.25 1.578125 11.25 0.75 C 11.25 0.683594 11.222656 0.617188 11.175781 0.570312 C 11.125 0.523438 11.058594 0.496094 10.992188 0.5 Z M 8.871094 3.75 C 8.082031 3.773438 7.308594 3.992188 6.625 4.390625 C 6.511719 4.460938 6.472656 4.609375 6.542969 4.726562 C 6.609375 4.84375 6.757812 4.886719 6.875 4.824219 C 8.671875 3.792969 10.953125 4.214844 12.261719 5.820312 C 13.570312 7.425781 13.523438 9.746094 12.152344 11.296875 C 10.777344 12.851562 8.480469 13.179688 6.726562 12.074219 C 4.972656 10.96875 4.277344 8.757812 5.082031 6.847656 C 5.132812 6.722656 5.074219 6.578125 4.949219 6.527344 C 4.824219 6.472656 4.679688 6.527344 4.621094 6.652344 C 3.875 8.425781 4.273438 10.476562 5.628906 11.84375 C 6.980469 13.207031 9.027344 13.621094 10.808594 12.890625 C 12.585938 12.15625 13.75 10.425781 13.75 8.5 C 13.75 7.21875 13.234375 5.988281 12.316406 5.09375 C 11.394531 4.199219 10.15625 3.714844 8.871094 3.75 Z M 9.6875 5.25 C 9.671875 5.25 9.660156 5.25 9.644531 5.25 C 9.261719 5.285156 8.976562 5.613281 9 5.996094 C 9.0625 6.597656 9.492188 7.09375 10.074219 7.246094 C 10.089844 7.25 10.109375 7.25 10.125 7.25 C 10.140625 7.25 10.160156 7.25 10.175781 7.246094 C 10.757812 7.09375 11.1875 6.597656 11.25 5.996094 C 11.273438 5.613281 10.988281 5.285156 10.609375 5.25 C 10.433594 5.238281 10.261719 5.296875 10.125 5.410156 C 10.003906 5.304688 9.847656 5.25 9.6875 5.25 Z M 10.566406 5.75 C 10.570312 5.75 10.574219 5.75 10.574219 5.75 C 10.683594 5.765625 10.761719 5.863281 10.75 5.972656 C 10.703125 6.324219 10.460938 6.621094 10.125 6.742188 C 9.789062 6.621094 9.546875 6.324219 9.5 5.972656 C 9.488281 5.863281 9.566406 5.765625 9.675781 5.75 L 9.6875 5.75 C 9.734375 5.75 9.78125 5.765625 9.8125 5.800781 C 9.851562 5.835938 9.875 5.890625 9.875 5.945312 C 9.875 6.082031 9.988281 6.195312 10.125 6.195312 C 10.261719 6.195312 10.375 6.082031 10.375 5.945312 C 10.375 5.890625 10.398438 5.835938 10.4375 5.800781 C 10.472656 5.765625 10.519531 5.746094 10.566406 5.75 Z M 6.679688 7.003906 C 6.640625 7.003906 6.605469 7.007812 6.566406 7.011719 C 5.785156 7.128906 5.21875 7.816406 5.25 8.601562 C 5.296875 10.640625 6.964844 12.261719 9 12.25 C 10.847656 12.257812 12.421875 10.914062 12.703125 9.089844 C 12.738281 8.878906 12.675781 8.664062 12.539062 8.503906 C 12.402344 8.34375 12.203125 8.25 11.992188 8.25 L 11.933594 8.25 C 11.574219 8.253906 11.273438 8.515625 11.21875 8.871094 L 11.210938 8.90625 C 11.203125 8.957031 11.164062 8.992188 11.117188 9 C 11.0625 9.007812 11.007812 8.980469 10.980469 8.929688 C 10.433594 7.914062 9.199219 7.476562 8.132812 7.925781 C 8.058594 7.742188 7.949219 7.578125 7.808594 7.441406 C 7.800781 7.433594 7.789062 7.425781 7.777344 7.417969 C 7.480469 7.136719 7.085938 6.988281 6.679688 7.003906 Z M 6.726562 7.5 C 6.734375 7.5 6.738281 7.5 6.746094 7.5 C 7.03125 7.5 7.304688 7.625 7.492188 7.835938 C 7.503906 7.851562 7.515625 7.863281 7.527344 7.878906 C 7.554688 7.914062 7.582031 7.949219 7.605469 7.988281 C 7.609375 7.996094 7.613281 8.003906 7.617188 8.011719 C 7.671875 8.109375 7.710938 8.214844 7.730469 8.324219 C 7.730469 8.328125 7.730469 8.328125 7.734375 8.332031 C 7.742188 8.386719 7.75 8.441406 7.75 8.5 C 7.75 8.765625 7.644531 9.019531 7.457031 9.207031 C 7.390625 9.269531 7.367188 9.363281 7.390625 9.449219 C 7.414062 9.539062 7.480469 9.605469 7.566406 9.628906 C 7.65625 9.652344 7.746094 9.625 7.8125 9.5625 C 8.09375 9.28125 8.25 8.898438 8.25 8.5 C 8.25 8.476562 8.246094 8.449219 8.246094 8.425781 C 9.085938 8.015625 10.101562 8.34375 10.539062 9.167969 C 10.667969 9.40625 10.929688 9.535156 11.195312 9.492188 C 11.453125 9.453125 11.660156 9.253906 11.703125 8.996094 L 11.710938 8.953125 C 11.726562 8.839844 11.820312 8.753906 11.933594 8.75 L 11.992188 8.75 C 12.054688 8.75 12.117188 8.777344 12.15625 8.828125 C 12.199219 8.878906 12.21875 8.945312 12.210938 9.011719 C 11.949219 10.671875 10.464844 11.859375 8.789062 11.75 C 7.109375 11.640625 5.792969 10.269531 5.75 8.589844 C 5.722656 8.058594 6.101562 7.589844 6.625 7.507812 C 6.660156 7.503906 6.691406 7.5 6.726562 7.5 Z M 6.75 8 C 6.609375 8 6.5 8.113281 6.5 8.25 C 6.5 8.386719 6.609375 8.5 6.75 8.5 C 6.886719 8.5 7 8.386719 7 8.25 C 7 8.113281 6.886719 8 6.75 8 Z M 10.824219 9.972656 C 10.753906 9.96875 10.683594 10 10.636719 10.050781 C 10.210938 10.5 9.617188 10.753906 9 10.75 C 8.863281 10.75 8.75 10.863281 8.75 11 C 8.75 11.136719 8.863281 11.25 9 11.25 C 9.757812 11.253906 10.480469 10.945312 11 10.394531 C 11.066406 10.324219 11.085938 10.21875 11.050781 10.125 C 11.011719 10.035156 10.925781 9.972656 10.824219 9.972656 Z M 10.824219 9.972656 "/>
</g>
</svg>
