<?xml version="1.0" encoding="UTF-8"?>
<svg xmlns="http://www.w3.org/2000/svg" xmlns:xlink="http://www.w3.org/1999/xlink" viewBox="0 0 64 64" width="64px" height="64px">
<g id="surface124233">
<path style=" stroke:none;fill-rule:nonzero;fill:rgb(100%,100%,100%);fill-opacity:1;" d="M 8.234375 2 C 7.925781 1.988281 7.625 2.121094 7.425781 2.359375 C 7.222656 2.601562 7.148438 2.921875 7.21875 3.226562 L 7.292969 3.550781 C 9.171875 11.75 9.191406 20.261719 7.351562 28.46875 L 6.421875 32.578125 C 4.289062 42.058594 4.566406 51.929688 7.230469 61.277344 C 7.355469 61.707031 7.746094 62 8.191406 62 C 8.285156 62 8.378906 61.988281 8.464844 61.964844 C 8.722656 61.890625 8.9375 61.71875 9.066406 61.488281 C 9.195312 61.253906 9.226562 60.980469 9.152344 60.726562 C 6.582031 51.699219 6.3125 42.171875 8.375 33.019531 L 9.300781 28.910156 C 11.210938 20.410156 11.1875 11.589844 9.242188 3.097656 L 9.167969 2.773438 C 9.066406 2.335938 8.6875 2.019531 8.234375 2 Z M 43.96875 2 C 43.429688 2.015625 43 2.457031 43 3 C 42.992188 6.53125 40.921875 9.734375 37.707031 11.191406 C 37.292969 11.378906 37.054688 11.820312 37.128906 12.269531 C 37.203125 12.714844 37.574219 13.058594 38.027344 13.097656 C 48.871094 14.171875 57.09375 23.367188 56.957031 34.265625 C 56.816406 45.164062 48.363281 54.144531 37.492188 54.941406 C 37.226562 54.960938 36.976562 55.085938 36.804688 55.289062 C 36.628906 55.492188 36.542969 55.757812 36.566406 56.023438 L 37 61.085938 C 37.042969 61.605469 37.480469 62 38 62 C 38.027344 62 38.058594 62 38.089844 62 C 38.351562 61.976562 38.597656 61.851562 38.769531 61.648438 C 38.941406 61.441406 39.023438 61.179688 39 60.914062 L 38.652344 56.84375 C 50.234375 55.46875 58.96875 45.664062 59 34 C 59.042969 23.183594 51.507812 13.808594 40.933594 11.53125 C 43.5 9.441406 44.996094 6.308594 45 3 C 45 2.730469 44.890625 2.472656 44.695312 2.28125 C 44.503906 2.09375 44.242188 1.992188 43.972656 2 Z M 35.488281 15.007812 C 32.328125 15.097656 29.238281 15.976562 26.5 17.5625 C 26.042969 17.847656 25.898438 18.445312 26.167969 18.910156 C 26.433594 19.375 27.023438 19.542969 27.5 19.292969 C 34.691406 15.164062 43.8125 16.851562 49.050781 23.28125 C 54.289062 29.707031 54.101562 38.984375 48.605469 45.191406 C 43.109375 51.402344 33.925781 52.714844 26.910156 48.300781 C 19.894531 43.882812 17.109375 35.03125 20.332031 27.390625 C 20.535156 26.886719 20.292969 26.3125 19.792969 26.101562 C 19.292969 25.890625 18.714844 26.117188 18.492188 26.613281 C 15.503906 33.707031 17.089844 41.902344 22.507812 47.367188 C 27.929688 52.832031 36.109375 54.488281 43.230469 51.558594 C 50.347656 48.632812 54.996094 41.699219 55 34 C 55.003906 28.871094 52.933594 23.957031 49.261719 20.378906 C 45.585938 16.800781 40.617188 14.863281 35.492188 15.007812 Z M 38.753906 21 C 38.695312 21 38.632812 21 38.574219 21.007812 C 37.050781 21.136719 35.910156 22.457031 36 23.984375 C 36.246094 26.386719 37.964844 28.378906 40.300781 28.976562 C 40.367188 28.992188 40.433594 29 40.5 29 C 40.566406 29 40.632812 28.992188 40.699219 28.976562 C 43.035156 28.378906 44.753906 26.386719 45 23.984375 C 45.089844 22.460938 43.953125 21.140625 42.433594 21.007812 C 41.730469 20.960938 41.042969 21.1875 40.503906 21.636719 C 40.015625 21.222656 39.394531 21 38.753906 21 Z M 42.269531 22.996094 C 42.28125 23 42.292969 23 42.300781 23 C 42.734375 23.066406 43.039062 23.457031 43 23.890625 C 42.808594 25.300781 41.84375 26.488281 40.5 26.960938 C 39.15625 26.488281 38.191406 25.304688 38 23.890625 C 37.960938 23.457031 38.265625 23.066406 38.699219 23 L 38.75 23 C 38.9375 23 39.117188 23.070312 39.253906 23.199219 C 39.414062 23.347656 39.5 23.558594 39.5 23.773438 C 39.5 24.328125 39.949219 24.773438 40.5 24.773438 C 41.050781 24.773438 41.5 24.328125 41.5 23.773438 C 41.5 23.558594 41.585938 23.347656 41.746094 23.199219 C 41.886719 23.0625 42.078125 22.992188 42.273438 22.996094 Z M 26.71875 28.011719 C 26.566406 28.019531 26.414062 28.03125 26.265625 28.046875 C 23.140625 28.511719 20.871094 31.257812 21 34.414062 C 21.183594 42.554688 27.855469 49.046875 36 49 C 43.386719 49.035156 49.6875 43.65625 50.8125 36.355469 C 50.945312 35.515625 50.703125 34.65625 50.148438 34.007812 C 49.605469 33.367188 48.804688 33 47.960938 33 L 47.726562 33 C 46.296875 33.015625 45.089844 34.066406 44.875 35.476562 L 44.847656 35.628906 C 44.820312 35.824219 44.664062 35.976562 44.464844 35.992188 C 44.246094 36.035156 44.023438 35.925781 43.917969 35.726562 C 41.730469 31.65625 36.804688 29.910156 32.539062 31.699219 C 32.238281 30.972656 31.796875 30.316406 31.238281 29.761719 C 31.199219 29.726562 31.152344 29.699219 31.105469 29.671875 C 29.929688 28.546875 28.347656 27.949219 26.71875 28.011719 Z M 26.910156 30 C 26.933594 30 26.957031 30 26.980469 30 C 28.125 30.003906 29.214844 30.496094 29.972656 31.351562 C 30.019531 31.402344 30.0625 31.457031 30.105469 31.511719 C 30.21875 31.652344 30.324219 31.796875 30.414062 31.945312 C 30.4375 31.980469 30.453125 32.015625 30.472656 32.046875 C 30.691406 32.4375 30.84375 32.859375 30.921875 33.300781 C 30.925781 33.308594 30.929688 33.316406 30.929688 33.324219 C 30.972656 33.546875 30.996094 33.773438 31 34 C 31.003906 35.0625 30.582031 36.078125 29.828125 36.828125 C 29.570312 37.078125 29.464844 37.449219 29.558594 37.800781 C 29.648438 38.148438 29.921875 38.421875 30.269531 38.511719 C 30.621094 38.605469 30.992188 38.5 31.242188 38.242188 C 32.371094 37.121094 33.003906 35.59375 33 34 C 33 33.898438 32.992188 33.800781 32.988281 33.699219 C 36.347656 32.058594 40.402344 33.371094 42.164062 36.671875 C 42.667969 37.621094 43.71875 38.144531 44.777344 37.964844 C 45.816406 37.8125 46.636719 37.015625 46.816406 35.984375 L 46.847656 35.8125 L 46.847656 35.804688 C 46.902344 35.359375 47.277344 35.015625 47.726562 35 L 47.960938 35 C 48.21875 35 48.464844 35.113281 48.628906 35.308594 C 48.804688 35.511719 48.878906 35.78125 48.835938 36.042969 C 47.792969 42.683594 41.859375 47.433594 35.148438 46.996094 C 28.441406 46.558594 23.171875 41.078125 23 34.359375 C 22.890625 32.234375 24.398438 30.367188 26.5 30.027344 C 26.636719 30.011719 26.773438 30.003906 26.910156 30 Z M 26.996094 32 C 26.445312 32 25.996094 32.449219 25.996094 33 C 25.996094 33.550781 26.445312 34 26.996094 34 C 27.546875 34 27.996094 33.550781 27.996094 33 C 27.996094 32.449219 27.546875 32 26.996094 32 Z M 43.300781 39.886719 C 43.015625 39.878906 42.742188 39.992188 42.546875 40.199219 C 40.847656 42 38.476562 43.015625 36 43 C 35.449219 43 35 43.449219 35 44 C 35 44.550781 35.449219 45 36 45 C 39.027344 45.019531 41.921875 43.777344 44 41.578125 C 44.273438 41.292969 44.351562 40.871094 44.199219 40.503906 C 44.046875 40.140625 43.695312 39.898438 43.300781 39.886719 Z M 43.300781 39.886719 "/>
</g>
</svg>
